<?xml version="1.0" encoding="iso-8859-1"?>
<!-- Uploaded to: SVG Repo, www.svgrepo.com, Generator: SVG Repo Mixer Tools -->
<svg height="800px" width="800px" version="1.1" id="Layer_1" xmlns="http://www.w3.org/2000/svg" xmlns:xlink="http://www.w3.org/1999/xlink" 
	 viewBox="0 0 512 512" xml:space="preserve">
<path style="fill:#70E5CF;" d="M411.97,414.252v88.818H100.037v-88.818c0-49.826,34.015-91.699,80.079-103.676
	c6.108,4.084,12.811,7.394,20.014,9.822h111.748c7.179-2.429,13.894-5.751,19.99-9.822c23.478,6.108,43.826,19.966,58.136,38.694
	C403.791,367.295,411.97,389.809,411.97,414.252z"/>
<path style="fill:#F2F2F2;" d="M361.347,276.382c-6.513,13.763-16.68,25.633-29.479,34.194c-6.096,4.072-12.811,7.394-19.99,9.822
	h-0.024l-41.468,13.966c-4.655,1.572-9.537,2.345-14.382,2.345c-4.881,0-9.727-0.774-14.406-2.345l-41.468-13.966
	c-7.203-2.429-13.906-5.739-20.014-9.822c-23.085-15.418-37.587-41.611-37.587-70.34v-15.085v-35.479h60.934
	c48.588,0,92.211-29.836,109.82-75.138l56.172,78.626v31.991v15.085C369.455,253.022,366.573,265.321,361.347,276.382z"/>
<path style="fill:#35D8B9;" d="M100.037,500.093v-88.818c0-49.826,34.015-91.699,80.079-103.676c1.988,1.33,4.047,2.568,6.158,3.73
	c-27.699,16.723-46.953,53.745-46.953,96.744v50.539v41.184L100.037,500.093z"/>
<g>
	<path style="fill:#F95428;" d="M215.881,380.284l-28.824,15.501l13.073-75.388l41.468,13.966c4.679,1.572,9.525,2.345,14.406,2.345
		v21.978L215.881,380.284z"/>
	<path style="fill:#F95428;" d="M311.878,320.398l13.049,75.388l-28.824-15.501l-40.099-21.597v-21.978
		c4.846,0,9.727-0.774,14.382-2.345l41.468-13.966L311.878,320.398L311.878,320.398z"/>
</g>
<g>
	<polygon style="fill:#E54728;" points="296.103,380.284 256.004,420.383 215.881,380.284 256.004,358.687 	"/>
	<path style="fill:#E54728;" d="M405.41,175.194v49.957c0,8.334-6.763,15.085-15.085,15.085h-5.786
		c-8.334,0-15.085-6.751-15.085-15.085V193.16v-20.859c0-8.334,6.751-15.085,15.085-15.085h5.786
		c8.322,0,15.085,6.751,15.085,15.085V175.194z"/>
	<path style="fill:#E54728;" d="M142.529,189.671v35.479c0,8.334-6.751,15.085-15.073,15.085h-5.798
		c-8.334,0-15.073-6.751-15.073-15.085v-49.957v-2.893c0-8.334,6.739-15.085,15.073-15.085h5.798
		c8.322,0,15.073,6.751,15.073,15.085V189.671z"/>
</g>
<g>
	<path style="fill:#F95428;" d="M405.41,172.301v52.85c0,8.334-6.763,15.085-15.085,15.085h-4.167v-83.02h4.167
		C398.648,157.216,405.41,163.966,405.41,172.301z"/>
	<path style="fill:#F95428;" d="M106.585,172.301v52.85c0,8.334,6.763,15.085,15.085,15.085h4.167v-83.02h-4.167
		C113.347,157.216,106.585,163.966,106.585,172.301z"/>
</g>
<path id="SVGCleanerId_0" style="fill:#808080;" d="M369.455,137.452v55.708l-56.172-78.626
	c-17.609,45.302-61.232,75.138-109.82,75.138h-60.934v-52.219c0-52.362,42.456-94.83,94.83-94.83h37.265
	c2.203,0,4.393,0.071,6.56,0.226C330.499,46.217,369.455,87.293,369.455,137.452z"/>
<g>
	<path id="SVGCleanerId_0_1_" style="fill:#808080;" d="M369.455,137.452v55.708l-56.172-78.626
		c-17.609,45.302-61.232,75.138-109.82,75.138h-60.934v-52.219c0-52.362,42.456-94.83,94.83-94.83h37.265
		c2.203,0,4.393,0.071,6.56,0.226C330.499,46.217,369.455,87.293,369.455,137.452z"/>
</g>
<path style="fill:#F2F2F2;" d="M329.471,137.193l-16.188-22.659c-17.609,45.302-61.232,75.138-109.82,75.138h27.979
	C271.369,189.671,307.93,169.513,329.471,137.193z"/>
<path style="fill:#E6E6E6;" d="M269.576,334.363l-41.468-13.966c-7.203-2.429-13.906-5.739-20.014-9.822
	c-23.085-15.418-37.587-41.611-37.587-70.34v-15.085v-35.479h-27.979v35.479v15.085c0,28.729,14.501,54.922,37.587,70.34
	c6.108,4.084,12.811,7.394,20.014,9.822l41.468,13.966c4.679,1.572,9.525,2.345,14.406,2.345c4.706,0,9.445-0.737,13.979-2.218
	C269.848,334.447,269.711,334.409,269.576,334.363z"/>
<path style="fill:#666666;" d="M265.338,42.622h-27.979c-52.374,0-94.83,42.468-94.83,94.83v52.219h27.979v-52.219
	C170.508,85.09,212.964,42.622,265.338,42.622z"/>
<g>
	<path style="fill:#333333;" d="M91.104,414.248v88.823c0,4.931,3.998,8.929,8.929,8.929h311.934c4.933,0,8.929-3.998,8.929-8.929
		v-88.823c0-47.179-28.45-89.025-70.899-106.916c6.647-6.454,12.318-13.873,16.803-22.026h4.878
		c23.522,0,42.659-19.136,42.659-42.659V133.605c0-16.623-3.018-32.845-8.971-48.213c-9.626-24.869-26.317-46.11-48.266-61.427
		C334.629,8.288,308.218,0,280.719,0h-49.451c-27.499,0-53.912,8.29-76.384,23.972c-21.823,15.231-38.444,36.313-48.09,60.993
		c-0.065,0.146-0.127,0.294-0.186,0.444c-5.943,15.379-8.957,31.593-8.957,48.196v91.549c0,13.239,10.77,24.009,24.009,24.009h5.793
		c2.255,0,4.429-0.335,6.501-0.918c1.924,22.564,11.919,43.492,28.018,59.096C119.539,325.239,91.104,367.078,91.104,414.248z
		 M256,368.831l25.304,13.619l-25.305,25.305l-25.311-25.304L256,368.831z M198.991,379.229l8.156-47.045l31.607,10.641
		c2.72,0.914,5.499,1.604,8.316,2.074v8.456L198.991,379.229z M256,358.691L256,358.691L256,358.691L256,358.691z M264.929,353.355
		v-8.457c2.817-0.47,5.593-1.161,8.309-2.076l31.612-10.643l8.148,47.05L264.929,353.355z M403.037,414.248v79.893H264.929V424.08
		l32.794-32.795l22.976,12.365c1.325,0.713,2.78,1.066,4.229,1.066c1.839,0,3.671-0.568,5.222-1.685
		c2.772-1.998,4.161-5.402,3.578-8.769l-11.808-68.177c3.916-1.689,7.708-3.641,11.35-5.842
		C374.535,332.68,403.037,370.798,403.037,414.248z M360.524,165.3l-39.979-55.961c-1.906-2.668-5.121-4.079-8.377-3.669
		c-3.254,0.408-6.024,2.568-7.211,5.626c-7.984,20.542-21.819,37.977-40.008,50.423c-18.189,12.443-39.451,19.021-61.49,19.021
		h-51.994v-43.286c0-47.365,38.535-85.9,85.9-85.9h37.261c47.365,0,85.9,38.535,85.9,85.9L360.524,165.3L360.524,165.3z
		 M374.393,267.292c1.879-6.196,3.102-12.556,3.65-19.043c2.068,0.582,4.238,0.916,6.49,0.916h5.793
		c1.866,0,3.673-0.235,5.417-0.639C393.304,258.512,384.823,266.15,374.393,267.292z M396.477,175.189v49.965
		c0,3.392-2.759,6.151-6.151,6.151h-5.793c-3.392,0-6.151-2.76-6.151-6.151v-52.856c0-3.392,2.759-6.151,6.151-6.151h5.793
		c3.392,0,6.151,2.759,6.151,6.151V175.189z M133.605,225.154c0,3.392-2.76,6.151-6.152,6.151h-5.793
		c-3.392,0-6.151-2.76-6.151-6.151v-49.965v-2.891c0-3.392,2.759-6.151,6.151-6.151h5.793c3.392,0,6.152,2.759,6.152,6.151V225.154z
		 M133.605,137.451v11.667c-1.967-0.523-4.022-0.829-6.152-0.829h-5.793c-2.129,0-4.184,0.306-6.151,0.829v-15.512
		c0-14.244,2.556-28.151,7.598-41.346c0.06-0.135,0.117-0.271,0.17-0.41c8.333-21.544,22.796-39.951,41.825-53.231
		c19.461-13.582,42.34-20.76,66.164-20.76h49.451c23.825,0,46.703,7.177,66.16,20.753c19.027,13.277,33.492,31.683,41.832,53.229
		c5.154,13.305,7.766,27.356,7.766,41.765v15.512c-1.967-0.523-4.022-0.829-6.151-0.829h-5.793c-2.129,0-4.184,0.306-6.151,0.829
		v-11.667c0-57.212-46.546-103.758-103.758-103.758h-37.261C180.151,33.692,133.605,80.238,133.605,137.451z M151.464,240.235
		v-15.08v-26.56h51.994c25.652,0,50.402-7.655,71.575-22.139c16.767-11.47,30.355-26.586,39.9-44.253l45.592,63.819v29.134v15.08
		c0,9.409-1.724,18.535-5.081,27.213h-64.772c-4.933,0-8.929,3.998-8.929,8.929c0,4.931,3.997,8.929,8.929,8.929h54.959
		c-5.153,6.948-11.476,12.996-18.724,17.84c-5.467,3.652-11.409,6.584-17.67,8.716c-0.075,0.024-0.151,0.048-0.225,0.073
		l-41.473,13.962c-7.415,2.498-15.655,2.498-23.091,0l-41.469-13.962c-6.353-2.139-12.374-5.097-17.898-8.79
		C164.031,289.086,151.464,265.568,151.464,240.235z M178.718,320.245c3.642,2.203,7.438,4.154,11.361,5.845l-11.819,68.172
		c-0.583,3.367,0.805,6.772,3.578,8.77c1.55,1.118,3.381,1.686,5.222,1.686c1.449,0,2.903-0.352,4.229-1.066l22.978-12.364
		l32.803,32.794v70.061H108.961v-79.893C108.963,370.8,137.459,332.682,178.718,320.245z"/>
	<path style="fill:#333333;" d="M308.122,434.72c0,4.931,3.997,8.929,8.929,8.929h45.24c4.933,0,8.929-3.998,8.929-8.929
		c0-4.931-3.997-8.929-8.929-8.929h-45.24C312.118,425.791,308.122,429.789,308.122,434.72z"/>
</g>
</svg>